<svg width="244" height="143" viewBox="0 0 244 143" fill="none" xmlns="http://www.w3.org/2000/svg">
<g filter="url(#filter0_f_108_20)">
<path d="M30.3461 57.707C47.7579 90.5608 82.2997 113 121.999 113C161.699 113 196.241 90.5608 213.655 57.707H30.3461Z" fill="#650698" fill-opacity="0.1"/>
</g>
<path d="M178.49 25.1103C182.275 25.1103 185.68 27.4137 187.089 30.9271L191.114 40.9634H52.3671L56.3922 30.9267C57.8011 27.4133 61.2058 25.1099 64.9916 25.1099H93.9453V9.31443C93.9453 4.19773 98.0941 0.049408 103.21 0.049408H112.475L131.006 0.0498161H140.271C145.388 0.0498161 149.536 4.19814 149.536 9.31483V25.1103H178.49Z" fill="#040566"/>
<path d="M27.5911 65.6872C25.8672 63.1402 25.521 59.9028 26.6658 57.0485L30.686 47.0243H212.794L216.815 57.0485C217.96 59.9028 217.613 63.141 215.891 65.6872C214.167 68.2351 211.292 69.7621 208.216 69.7621H186.597H167.951H75.5285H56.9513H35.2651C32.1897 69.7621 29.3137 68.2351 27.5911 65.6872Z" fill="#040566"/>
<path d="M81.0459 73C88.8262 87.6803 104.261 97.707 122 97.707C139.739 97.707 155.174 87.6803 162.955 73H81.0459Z" fill="#EDEDF8"/>
<defs>
<filter id="filter0_f_108_20" x="0.346069" y="27.707" width="243.309" height="115.293" filterUnits="userSpaceOnUse" color-interpolation-filters="sRGB">
<feFlood flood-opacity="0" result="BackgroundImageFix"/>
<feBlend mode="normal" in="SourceGraphic" in2="BackgroundImageFix" result="shape"/>
<feGaussianBlur stdDeviation="15" result="effect1_foregroundBlur_108_20"/>
</filter>
</defs>
</svg>
