<?xml version="1.0" encoding="UTF-8"?>
<svg width="1034.8" height="238.56" version="1.1" viewBox="0 0 1034.8 238.56" xml:space="preserve" xmlns="http://www.w3.org/2000/svg" xmlns:xlink="http://www.w3.org/1999/xlink"><defs><linearGradient id="linearGradient1122" x2="1" gradientTransform="matrix(-82.062 182.95 -182.95 -82.062 165.32 113.6)" gradientUnits="userSpaceOnUse"><stop stop-color="#f2b81a" offset="0"/><stop stop-color="#e78c00" offset=".29219"/><stop stop-color="#be1e2d" offset=".95869"/><stop stop-color="#be1e2d" offset="1"/></linearGradient><clipPath id="clipPath1188"><path d="m0 1e3h1e3v-1e3h-1e3z"/></clipPath><linearGradient id="linearGradient2265" x2="1" gradientTransform="matrix(-82.062 182.95 -182.95 -82.062 165.32 113.6)" gradientUnits="userSpaceOnUse" xlink:href="#linearGradient1122"/></defs><g transform="matrix(1.3333 0 0 -1.3333 -156.31 803.45)"><g fill="url(#linearGradient2265)"><path transform="matrix(.75 0 0 -.75 117.23 675.31)" d="m92.34 100.06c0.60223 0.89156 1.2205 1.7797 1.8711 2.6582 0.7285 0.984 1.481 1.9509 2.2578 2.9023 0.77679 0.95142 1.5789 1.8869 2.4023 2.8047 0.82346 0.91778 1.6686 1.8181 2.5371 2.7012 0.86853 0.88311 1.7599 1.7483 2.6719 2.5957 0.91198 0.84739 1.845 1.6777 2.7988 2.4883 0.95382 0.81062 1.9278 1.6022 2.9219 2.375 0.99405 0.77281 2.0084 1.5258 3.041 2.2598 1.0327 0.73395 2.0846 1.4485 3.1543 2.1426 1.0697 0.69404 2.1567 1.3684 3.2617 2.0215s2.2284 1.2854 3.3672 1.8965c1.1388 0.61109 2.2938 1.1995 3.4648 1.7676 1.171 0.56805 2.357 1.1147 3.5586 1.6387s2.4179 1.027 3.6484 1.5059c1.2305 0.47883 2.4746 0.93452 3.7324 1.3672s2.5289 0.84113 3.8125 1.2266c1.2836 0.38543 2.581 0.74681 3.8887 1.084 2.0303 0.52333 4.07 0.98295 6.1152 1.377s4.0943 0.72267 6.1465 0.98633c2.0522 0.26367 4.107 0.46142 6.1582 0.59375 2.0512 0.13234 4.1002 0.19922 6.1426 0.19922 2.1527 0 4.2793-0.0704 6.377-0.21094 2.0977-0.14048 4.1655-0.35054 6.2012-0.62695 2.0357-0.27641 4.039-0.61958 6.0059-1.0273 1.9668-0.40777 3.8981-0.87951 5.7891-1.4141 1.891-0.53455 3.7407-1.1323 5.5488-1.7891 1.4779-0.53681 2.9079-1.1402 4.3262-1.7559-21.579-21.539-51.363-34.859-84.262-34.859-9.269 0-18.278 1.0915-26.939 3.0918z"/><path transform="matrix(.75 0 0 -.75 117.23 675.31)" d="m47.961 120.67c0.10319 0.31971 0.18496 0.63917 0.29492 0.95898 0.37138 1.0802 0.78227 2.16 1.2305 3.2402 0.4482 1.0802 0.93452 2.1597 1.459 3.2383 0.52446 1.0786 1.0873 2.157 1.6875 3.2324 0.60016 1.0754 1.2368 2.1482 1.9121 3.2188 0.6753 1.0706 1.3888 2.1371 2.1387 3.2012s1.5374 2.1256 2.3613 3.1816c0.8239 1.056 1.6847 2.108 2.582 3.1543s1.8305 2.0862 2.8008 3.1211c0.99725 1.0639 2.0252 2.1128 3.082 3.1465 1.0568 1.0336 2.1435 2.0525 3.2578 3.0547 1.1143 1.0022 2.2561 1.9875 3.4258 2.957 1.1696 0.96957 2.367 1.9236 3.5898 2.8594s2.4702 1.8532 3.7441 2.7539c1.2739 0.90072 2.5736 1.7839 3.8965 2.6484s2.6694 1.7119 4.0391 2.5391c1.3697 0.82712 2.7614 1.6353 4.1758 2.4238 2.8287 1.5771 5.7456 3.0746 8.7402 4.4902 2.9946 1.4156 6.0674 2.7495 9.2109 3.9941 3.1435 1.2446 6.3575 2.4007 9.6328 3.4648 3.2754 1.0642 6.6118 2.036 10.002 2.9102 3.307 0.852 6.6186 1.5987 9.9258 2.2402s6.6107 1.1781 9.9062 1.6074c3.2956 0.42934 6.5834 0.7513 9.8555 0.9668s6.529 0.32422 9.7656 0.32422c2.5174 0 4.996-0.0636 7.4316-0.18945 2.4356-0.12584 4.8286-0.31443 7.1758-0.5625 2.3472-0.24808 4.6484-0.55713 6.9004-0.92383 2.252-0.3667 4.4533-0.79173 6.6035-1.2734 2.1502-0.48171 4.2493-1.0202 6.291-1.6133s4.0266-1.2405 5.9531-1.9414c1.9265-0.70091 3.793-1.4546 5.5977-2.2598s3.5466-1.6607 5.2227-2.5664c1.6761-0.90569 3.2873-1.8606 4.8281-2.8633 1.2834-0.83511 2.4885-1.723 3.6738-2.623-5.0786-12.946-12.342-24.795-21.354-35.08-0.28937 0.13699-0.55976 0.29769-0.85156 0.43164-1.8987 0.87154-3.8468 1.6769-5.8438 2.416-1.9969 0.73913-4.0414 1.4121-6.1289 2.0137-2.0875 0.60158-4.2183 1.1329-6.3887 1.5918-2.1704 0.45889-4.3814 0.84519-6.627 1.1562s-4.5268 0.54698-6.8398 0.70508c-2.313 0.1581-4.6565 0.23828-7.0293 0.23828-2.2027 0-4.4126-0.0723-6.623-0.21484-2.2105-0.14255-4.4225-0.3568-6.6328-0.64063s-4.4189-0.63667-6.6211-1.0606c-2.2022-0.42387-4.398-0.9178-6.584-1.4805-1.4127-0.36425-2.8122-0.7549-4.1992-1.1719s-2.7614-0.85955-4.1211-1.3281c-1.3597-0.46858-2.7045-0.9634-4.0352-1.4824-1.3306-0.51902-2.6475-1.0625-3.9473-1.6309-1.2998-0.56833-2.5824-1.1608-3.8496-1.7773-1.2672-0.6165-2.5191-1.2583-3.752-1.9219-1.2328-0.66354-2.4478-1.3492-3.6445-2.0586-1.1967-0.70942-2.3744-1.4411-3.5332-2.1953s-2.2987-1.5304-3.418-2.3281c-1.1192-0.79777-2.217-1.6187-3.2949-2.459s-2.1352-1.7005-3.1699-2.582c-1.0348-0.88157-2.0472-1.7833-3.0371-2.7051s-1.9571-1.8634-2.9004-2.8242c-0.94328-0.96079-1.8629-1.9408-2.7578-2.9394s-1.7665-2.0173-2.6113-3.0527c-0.84479-1.0355-1.6641-2.0871-2.457-3.1582-0.80425-1.0863-1.5744-2.1839-2.3125-3.2891-0.40893-0.61232-0.78336-1.2339-1.1719-1.8516-13.367 4.0536-25.73 10.404-36.658 18.568z"/><path transform="matrix(.75 0 0 -.75 117.23 675.31)" d="m16.682 155.46c0.18593 1.0485 0.36972 2.0974 0.60742 3.1465 0.31976 1.4112 0.68669 2.822 1.0996 4.2324s0.8715 2.821 1.377 4.2285 1.0569 2.8124 1.6543 4.2148 1.241 2.802 1.9297 4.1973c0.68865 1.3952 1.4219 2.786 2.2012 4.1719 0.77931 1.3859 1.6033 2.7662 2.4727 4.1406 0.86936 1.3745 1.7854 2.7426 2.7441 4.1035 0.95878 1.3609 1.9602 2.7154 3.0078 4.0606 1.0476 1.3452 2.1396 2.6824 3.2754 4.0098 1.1562 1.3512 2.3503 2.682 3.5781 3.9922 1.2278 1.3102 2.4901 2.5996 3.7871 3.8672 1.297 1.2676 2.6285 2.5128 3.9922 3.7363s2.7597 2.4255 4.1875 3.6035 2.8874 2.3319 4.377 3.4629c1.4895 1.131 3.008 2.2378 4.5566 3.3203 1.5487 1.0825 3.1271 2.1413 4.7324 3.1738 1.6053 1.0325 3.239 2.0384 4.8984 3.0195 1.6595 0.98109 3.3455 1.9371 5.0566 2.8652 1.7111 0.92816 3.4468 1.8294 5.207 2.7031s3.5446 1.7192 5.3516 2.5371c1.8069 0.81787 3.6372 1.6086 5.4883 2.3691s3.7225 1.4917 5.6152 2.1934c1.8927 0.70166 3.8065 1.3723 5.7383 2.0137 1.9318 0.64133 3.8812 1.2525 5.8496 1.832 1.9684 0.57953 3.9544 1.1283 5.957 1.6445 1.7852 0.46 3.5729 0.89173 5.3613 1.2949 1.7884 0.40319 3.579 0.77881 5.3691 1.125 1.7901 0.34619 3.5809 0.66219 5.3711 0.95117 1.7902 0.28899 3.5784 0.54967 5.3672 0.78125 1.7888 0.23159 3.5774 0.43539 5.3633 0.60938 1.7859 0.17398 3.5702 0.31936 5.3516 0.43554 1.7814 0.11619 3.5605 0.20353 5.3359 0.26172 1.7754 0.0582 3.5466 0.0859 5.3144 0.0859 1.5462 0 3.082-0.022 4.6074-0.0664 1.5254-0.0445 3.0415-0.11102 4.5449-0.19922s2.9944-0.19885 4.4746-0.33007c1.4802-0.13122 2.9485-0.28351 4.4043-0.45703 1.4558-0.17353 2.8999-0.36692 4.3301-0.58204s2.8467-0.45103 4.25-0.70703c1.4033-0.25599 2.7928-0.53197 4.168-0.82812s2.7362-0.61363 4.082-0.94922 2.6769-0.69013 3.9922-1.0644 2.6149-0.76736 3.8984-1.1797c1.2835-0.41233 2.5522-0.84335 3.8027-1.293s2.4829-0.9181 3.6992-1.4043c1.2163-0.48619 2.4148-0.98966 3.5957-1.5117 1.1809-0.52205 2.3441-1.0619 3.4883-1.6191 1.1442-0.55719 2.2706-1.133 3.377-1.7246 1.1063-0.59162 2.1925-1.1989 3.2598-1.8242 1.0672-0.62534 2.1157-1.2675 3.1426-1.9258 1.0269-0.65832 2.0322-1.3328 3.0176-2.0234 0.98533-0.69061 1.95-1.3989 2.8926-2.1211 0.94254-0.72216 1.8632-1.4599 2.7617-2.2129 0.89854-0.75301 1.7756-1.5196 2.6289-2.3027 0.6138-0.56332 1.2012-1.1441 1.791-1.7227 0.0346-1.1824 0.0898-2.36 0.0898-3.5508 0-12.568-1.9718-24.668-5.5801-36.039-0.3925 0.27651-0.74745 0.57916-1.1484 0.84961-1.6902 1.14-3.4548 2.2261-5.291 3.2559s-3.7439 2.0026-5.7188 2.918c-1.9748 0.91539-4.0168 1.7734-6.123 2.5703-2.1062 0.79694-4.2776 1.5326-6.5078 2.207-2.2302 0.67437-4.5202 1.2863-6.8672 1.834-2.347 0.54771-4.7506 1.0303-7.207 1.4473-2.4564 0.41694-4.9649 0.76872-7.5234 1.0508-2.5585 0.28206-5.167 0.49559-7.8203 0.63867-2.6533 0.14309-5.351 0.21485-8.0918 0.21485-1.698 0-3.4018-0.0275-5.1094-0.084s-3.4192-0.14112-5.1348-0.2539c-3.4312-0.22557-6.8778-0.56409-10.332-1.0137-3.4542-0.44958-6.9158-1.0096-10.381-1.6816-3.4651-0.67206-6.9328-1.4566-10.396-2.3496-1.7808-0.459-3.5483-0.94281-5.3008-1.4531-1.7525-0.51031-3.4909-1.0471-5.2129-1.6074-1.722-0.56037-3.428-1.1448-5.1172-1.7539s-3.3615-1.2417-5.0156-1.8984c-1.6541-0.65669-3.2894-1.338-4.9062-2.041s-3.2138-1.4278-4.791-2.1758c-1.5773-0.74801-3.1344-1.5188-4.6699-2.3106-1.5355-0.79178-3.0496-1.6052-4.541-2.4394-1.4915-0.8343-2.9611-1.6889-4.4062-2.5645-1.4452-0.87555-2.867-1.772-4.2637-2.6875-1.3967-0.91555-2.7674-1.8504-4.1133-2.8047-1.3459-0.9543-2.6661-1.9282-3.959-2.9199s-2.5592-2.0013-3.7969-3.0293c-1.2377-1.028-2.4468-2.0737-3.627-3.1367-1.1802-1.063-2.3307-2.1435-3.4512-3.2402-1.1205-1.0967-2.211-2.2107-3.2695-3.3398-1.0853-1.1576-2.1298-2.3229-3.1328-3.4961-1.0031-1.1732-1.9646-2.3541-2.8848-3.541-0.92016-1.1869-1.8001-2.3793-2.6367-3.5781-0.83664-1.1988-1.6303-2.4044-2.3828-3.6133-0.7525-1.2088-1.4631-2.4216-2.1309-3.6387-0.66775-1.217-1.2926-2.4368-1.875-3.6602-0.58238-1.2233-1.1228-2.45-1.6191-3.6777-0.2009-0.4969-0.36404-0.99477-0.55078-1.4922-9.8649 8.4612-18.312 18.519-24.988 29.75z"/><path transform="matrix(.75 0 0 -.75 117.23 675.31)" d="m11.285 165.57c-7.2366 15.377-11.285 32.55-11.285 50.674 0 65.877 53.401 119.28 119.28 119.28 61.008 0 111.28-45.812 118.38-104.91-0.34311 0.27682-0.67289 0.56314-1.0215 0.83593-1.015 0.79431-2.0527 1.5705-3.1133 2.3301-1.0606 0.7596-2.1432 1.5025-3.248 2.2266-1.1049 0.72409-2.233 1.4313-3.3809 2.1191-1.1478 0.68781-2.3164 1.3571-3.5059 2.0078s-2.3991 1.2816-3.6289 1.8945c-1.2298 0.61288-2.4792 1.207-3.748 1.7812-1.2688 0.57422-2.5568 1.1293-3.8633 1.6641-1.3065 0.53479-2.6318 1.0484-3.9746 1.543-1.3429 0.49456-2.7041 0.97029-4.082 1.4238-1.3779 0.45354-2.7719 0.88514-4.1836 1.2969-1.4117 0.41174-2.841 0.80274-4.2852 1.1719-1.4441 0.36914-2.9037 0.71721-4.3789 1.043s-2.9657 0.62857-4.4707 0.91015c-1.505 0.28159-3.0232 0.54267-4.5566 0.7793-1.5335 0.23663-3.0819 0.44975-4.6426 0.64063s-3.1342 0.35761-4.7207 0.50195c-1.5865 0.14434-3.1858 0.26626-4.7969 0.36328-1.611 0.097-3.2349 0.16985-4.8691 0.21875s-3.2794 0.0742-4.9356 0.0742c-1.848 0-3.6993-0.031-5.5547-0.0918-1.8554-0.0608-3.715-0.15211-5.5762-0.27344-1.8612-0.12132-3.7244-0.27341-5.5898-0.45507-1.8654-0.18167-3.7336-0.39298-5.6016-0.63477s-3.7365-0.51275-5.6055-0.81445c-1.869-0.30171-3.7371-0.63274-5.6055-0.99414-1.8684-0.36141-3.7374-0.75294-5.6035-1.1738-1.8662-0.42089-3.7295-0.8714-5.5918-1.3516-2.0959-0.54034-4.1755-1.1154-6.2363-1.7227s-4.1038-1.2473-6.127-1.9199c-2.0231-0.67266-4.027-1.3788-6.0098-2.1152-1.9828-0.73648-3.9449-1.504-5.8848-2.3027-1.9398-0.79875-3.8558-1.6269-5.75-2.4863-1.8942-0.85946-3.7653-1.7494-5.6113-2.668-1.846-0.91861-3.6678-1.8675-5.4629-2.8438-1.7951-0.97621-3.565-1.9795-5.3066-3.0117-1.7416-1.0322-3.4551-2.0929-5.1406-3.1797s-3.342-2.2002-4.9688-3.3398c-1.6267-1.1396-3.2237-2.3051-4.7891-3.4961-1.5653-1.191-3.0983-2.4076-4.5996-3.6484-1.5013-1.2408-2.9716-2.5058-4.4062-3.7949-1.4347-1.2891-2.8338-2.6017-4.1992-3.9375-1.3654-1.3358-2.6968-2.6952-3.9902-4.0762s-2.5506-2.7845-3.7695-4.209c-1.2395-1.4483-2.4295-2.907-3.5723-4.377-1.1427-1.4699-2.2379-2.9503-3.2832-4.4394-1.0453-1.4891-2.0411-2.9881-2.9883-4.4941s-1.845-3.0185-2.6934-4.5391c-0.84836-1.5205-1.6476-3.0493-2.3965-4.582-0.74889-1.5327-1.447-3.0707-2.0957-4.6133s-1.247-3.0886-1.7949-4.6387c-0.42913-1.214-0.80105-2.4312-1.168-3.6484z"/></g><g fill="#fff"><path transform="matrix(.75 0 0 -.75 117.23 675.31)" d="m11.285 165.57c0.36692 1.2172 0.73884 2.4345 1.168 3.6484 0.54793 1.55 1.1462 3.0961 1.7949 4.6387s1.3468 3.0806 2.0957 4.6133c0.74889 1.5327 1.5481 3.0615 2.3965 4.582 0.84836 1.5205 1.7462 3.0331 2.6934 4.5391s1.943 3.005 2.9883 4.4941c1.0453 1.4891 2.1405 2.9695 3.2832 4.4394 1.1427 1.4699 2.3328 2.9286 3.5723 4.377 1.2189 1.4245 2.4761 2.8281 3.7695 4.209s2.6249 2.7404 3.9902 4.0762c1.3654 1.3358 2.7646 2.6484 4.1992 3.9375 1.4347 1.2891 2.9049 2.5541 4.4062 3.7949 1.5013 1.2408 3.0343 2.4574 4.5996 3.6484 1.5653 1.191 3.1623 2.3564 4.7891 3.4961 1.6267 1.1397 3.2833 2.2531 4.9688 3.3398s3.399 2.1474 5.1406 3.1797 3.5115 2.0355 5.3066 3.0117c1.7951 0.97621 3.6169 1.9251 5.4629 2.8438 1.846 0.91862 3.7171 1.8085 5.6113 2.668 1.8942 0.85946 3.8102 1.6876 5.75 2.4863 1.9398 0.79875 3.902 1.5662 5.8848 2.3027 1.9828 0.73649 3.9866 1.4426 6.0098 2.1152 2.0231 0.67265 4.0661 1.3126 6.127 1.9199s4.1404 1.1823 6.2363 1.7227c1.8623 0.48016 3.7256 0.93067 5.5918 1.3516 1.8662 0.42089 3.7351 0.81242 5.6035 1.1738 1.8684 0.3614 3.7365 0.69243 5.6055 0.99414 1.869 0.3017 3.7375 0.57266 5.6055 0.81445s3.7362 0.4531 5.6016 0.63477c1.8654 0.18166 3.7286 0.33375 5.5898 0.45507 1.8612 0.12133 3.7208 0.21267 5.5762 0.27344 1.8554 0.0608 3.7067 0.0918 5.5547 0.0918 1.6562 0 3.3013-0.0253 4.9356-0.0742s3.2581-0.12173 4.8691-0.21875c1.611-0.097 3.2104-0.21894 4.7969-0.36328 1.5865-0.14434 3.16-0.31107 4.7207-0.50195s3.1091-0.404 4.6426-0.64063c1.5335-0.23663 3.0516-0.49771 4.5566-0.7793 1.505-0.28158 2.9955-0.58439 4.4707-0.91015s2.9348-0.67383 4.3789-1.043c1.4441-0.36914 2.8735-0.76014 4.2852-1.1719 1.4117-0.41173 2.8057-0.84333 4.1836-1.2969 1.3779-0.45354 2.7392-0.92927 4.082-1.4238 1.3429-0.49456 2.6681-1.0082 3.9746-1.543 1.3065-0.53478 2.5945-1.0898 3.8633-1.6641 1.2688-0.57422 2.5183-1.1684 3.748-1.7812 1.2298-0.61288 2.4394-1.2438 3.6289-1.8945s2.358-1.32 3.5059-2.0078c1.1478-0.68782 2.276-1.395 3.3809-2.1191 1.1049-0.7241 2.1874-1.467 3.248-2.2266 1.0606-0.75959 2.0983-1.5358 3.1133-2.3301 0.34859-0.27279 0.67837-0.55911 1.0215-0.83593 0.4281-3.562 0.69572-7.1708 0.80274-10.822-0.58986 0.57859-1.1772 1.1593-1.791 1.7227-0.85331 0.78313-1.7304 1.5497-2.6289 2.3027-0.89855 0.75301-1.8192 1.4907-2.7617 2.2129-0.94255 0.72217-1.9072 1.4305-2.8926 2.1211-0.98533 0.6906-1.9907 1.3651-3.0176 2.0234-1.0269 0.65833-2.0754 1.3004-3.1426 1.9258-1.0672 0.62533-2.1534 1.2326-3.2598 1.8242-1.1063 0.59163-2.2327 1.1674-3.377 1.7246-1.1442 0.5572-2.3074 1.0971-3.4883 1.6191-1.1809 0.52206-2.3794 1.0255-3.5957 1.5117-1.2163 0.4862-2.4487 0.95468-3.6992 1.4043s-2.5192 0.88064-3.8027 1.293c-1.2835 0.41233-2.5831 0.80537-3.8984 1.1797s-2.6463 0.72886-3.9922 1.0644-2.7068 0.65307-4.082 0.94922-2.7647 0.57213-4.168 0.82812c-1.4033 0.256-2.8198 0.49191-4.25 0.70703s-2.8743 0.40851-4.3301 0.58204c-1.4558 0.17352-2.924 0.32581-4.4043 0.45703-1.4803 0.13122-2.9712 0.24188-4.4746 0.33007-1.5035 0.0882-3.0195 0.15477-4.5449 0.19922-1.5254 0.0445-3.0612 0.0664-4.6074 0.0664-1.7678 0-3.539-0.0277-5.3144-0.0859s-3.5545-0.14553-5.3359-0.26172c-1.7814-0.11618-3.5657-0.26156-5.3516-0.43554-1.7859-0.17399-3.5744-0.37779-5.3633-0.60938-1.7888-0.23158-3.577-0.49226-5.3672-0.78125-1.7902-0.28898-3.581-0.60498-5.3711-0.95117-1.7901-0.34619-3.5808-0.72181-5.3691-1.125-1.7884-0.40319-3.5762-0.83492-5.3613-1.2949-2.0026-0.51625-3.9886-1.065-5.957-1.6445-1.9685-0.57953-3.9178-1.1907-5.8496-1.832-1.9318-0.64134-3.8456-1.312-5.7383-2.0137-1.8927-0.70165-3.7642-1.4329-5.6152-2.1934s-3.6814-1.5513-5.4883-2.3691c-1.8069-0.81786-3.5913-1.6634-5.3516-2.5371s-3.4959-1.775-5.207-2.7031c-1.7111-0.92816-3.3972-1.8842-5.0566-2.8652-1.6595-0.98108-3.2931-1.987-4.8984-3.0195-1.6053-1.0325-3.1838-2.0913-4.7324-3.1738-1.5487-1.0825-3.0671-2.1893-4.5566-3.3203-1.4895-1.131-2.9491-2.2849-4.377-3.4629s-2.8238-2.38-4.1875-3.6035-2.6952-2.4688-3.9922-3.7363c-1.297-1.2676-2.5593-2.557-3.7871-3.8672-1.2278-1.3102-2.422-2.6409-3.5781-3.9922-1.1358-1.3273-2.2278-2.6646-3.2754-4.0098-1.0476-1.3452-2.049-2.6997-3.0078-4.0606-0.95878-1.3609-1.8748-2.729-2.7441-4.1035-0.86936-1.3745-1.6933-2.7547-2.4727-4.1406-0.77931-1.3859-1.5125-2.7766-2.2012-4.1719-0.68865-1.3952-1.3323-2.7948-1.9297-4.1973s-1.1488-2.8074-1.6543-4.2148-0.96404-2.8181-1.377-4.2285-0.77985-2.8212-1.0996-4.2324c-0.2377-1.049-0.4215-2.098-0.60742-3.1465-1.9481 3.2773-3.7634 6.6413-5.3965 10.111z"/><path transform="matrix(.75 0 0 -.75 117.23 675.31)" d="m41.67 125.71c0.18674 0.49742 0.34988 0.99529 0.55078 1.4922 0.49638 1.2278 1.0368 2.4544 1.6191 3.6777 0.58238 1.2233 1.2072 2.4431 1.875 3.6602 0.66775 1.217 1.3784 2.4298 2.1309 3.6387 0.7525 1.2089 1.5462 2.4144 2.3828 3.6133 0.83664 1.1988 1.7166 2.3912 2.6367 3.5781 0.92016 1.1869 1.8817 2.3678 2.8848 3.541 1.0031 1.1732 2.0475 2.3385 3.1328 3.4961 1.0585 1.1292 2.1491 2.2431 3.2695 3.3398 1.1205 1.0967 2.271 2.1772 3.4512 3.2402 1.1802 1.063 2.3893 2.1087 3.627 3.1367 1.2377 1.028 2.5039 2.0375 3.7969 3.0293s2.6131 1.9656 3.959 2.9199c1.3459 0.95429 2.7166 1.8891 4.1133 2.8047 1.3967 0.91555 2.8185 1.812 4.2637 2.6875 1.4452 0.87555 2.9148 1.7302 4.4062 2.5645 1.4915 0.83429 3.0055 1.6477 4.541 2.4394 1.5355 0.79178 3.0927 1.5625 4.6699 2.3106 1.5773 0.748 3.1742 1.4728 4.791 2.1758s3.2522 1.3843 4.9062 2.041c1.6541 0.6567 3.3265 1.2893 5.0156 1.8984s3.3952 1.1935 5.1172 1.7539c1.722 0.56036 3.4604 1.0971 5.2129 1.6074 1.7525 0.51031 3.52 0.99412 5.3008 1.4531 3.4637 0.893 6.9314 1.6776 10.396 2.3496 3.4651 0.67207 6.9266 1.2321 10.381 1.6816 3.4542 0.44959 6.9008 0.78811 10.332 1.0137 1.7156 0.11278 3.4272 0.19741 5.1348 0.2539 1.7076 0.0565 3.4114 0.084 5.1094 0.084 2.7408 0 5.4385-0.0718 8.0918-0.21485 2.6533-0.14308 5.2618-0.35661 7.8203-0.63867 2.5585-0.28206 5.067-0.63384 7.5234-1.0508 2.4564-0.41694 4.86-0.89956 7.207-1.4473 2.347-0.5477 4.6369-1.1596 6.8672-1.834 2.2302-0.67438 4.4016-1.4101 6.5078-2.207 2.1062-0.79694 4.1482-1.6549 6.123-2.5703 1.9748-0.9154 3.8826-1.8882 5.7188-2.918s3.6008-2.1159 5.291-3.2559c0.40098-0.27045 0.75594-0.5731 1.1484-0.84961-0.79695-2.5116-1.6653-4.9913-2.6211-7.4277-1.1853 0.90009-2.3905 1.7879-3.6738 2.623-1.5409 1.0027-3.152 1.9576-4.8281 2.8633-1.6761 0.90569-3.418 1.7613-5.2227 2.5664s-3.6712 1.5588-5.5977 2.2598c-1.9265 0.70092-3.9114 1.3483-5.9531 1.9414s-4.1408 1.1316-6.291 1.6133c-2.1502 0.48171-4.3515 0.90674-6.6035 1.2734-2.252 0.3667-4.5532 0.67575-6.9004 0.92383-2.3472 0.24807-4.7402 0.43666-7.1758 0.5625-2.4356 0.12584-4.9142 0.18945-7.4316 0.18945-3.2367 0-6.4936-0.10872-9.7656-0.32422s-6.5599-0.53746-9.8555-0.9668c-3.2956-0.42933-6.599-0.96592-9.9062-1.6074s-6.6188-1.3882-9.9258-2.2402c-3.3902-0.87417-6.7266-1.846-10.002-2.9102-3.2754-1.0642-6.4893-2.2202-9.6328-3.4648-3.1435-1.2446-6.2163-2.5785-9.2109-3.9941-2.9946-1.4156-5.9116-2.9132-8.7402-4.4902-1.4143-0.78854-2.8061-1.5967-4.1758-2.4238-1.3697-0.82713-2.7162-1.6746-4.0391-2.5391s-2.6226-1.7477-3.8965-2.6484c-1.2739-0.90073-2.5213-1.8182-3.7441-2.7539s-2.4202-1.8898-3.5898-2.8594c-1.1696-0.96956-2.3115-1.9548-3.4258-2.957-1.1143-1.0022-2.201-2.021-3.2578-3.0547-1.0568-1.0337-2.0848-2.0826-3.082-3.1465-0.97025-1.0349-1.9034-2.0748-2.8008-3.1211s-1.7581-2.0983-2.582-3.1543c-0.8239-1.056-1.6114-2.1176-2.3613-3.1816s-1.4634-2.1306-2.1387-3.2012c-0.6753-1.0706-1.3119-2.1434-1.9121-3.2188-0.60016-1.0754-1.163-2.1538-1.6875-3.2324-0.52446-1.0786-1.0108-2.1581-1.459-3.2383-0.4482-1.0802-0.85909-2.1601-1.2305-3.2402-0.10996-0.31981-0.19173-0.63927-0.29492-0.95898-2.1556 1.6105-4.2514 3.2936-6.291 5.043z" fill-rule="evenodd"/><path transform="matrix(.75 0 0 -.75 117.23 675.31)" d="m84.619 102.1c0.38852 0.61767 0.76295 1.2392 1.1719 1.8516 0.73807 1.1052 1.5082 2.2027 2.3125 3.2891 0.79292 1.0711 1.6122 2.1227 2.457 3.1582 0.84479 1.0355 1.7164 2.054 2.6113 3.0527s1.8145 1.9787 2.7578 2.9394c0.94328 0.9608 1.9105 1.9025 2.9004 2.8242s2.0023 1.8235 3.0371 2.7051c1.0348 0.88156 2.092 1.7418 3.1699 2.582s2.1757 1.6612 3.2949 2.459c1.1192 0.79778 2.2591 1.574 3.418 2.3281s2.3365 1.4859 3.5332 2.1953c1.1967 0.70942 2.4117 1.3951 3.6445 2.0586 1.2328 0.66353 2.4848 1.3054 3.752 1.9219 1.2672 0.6165 2.5498 1.209 3.8496 1.7773 1.2998 0.56834 2.6166 1.1118 3.9473 1.6309 1.3306 0.51903 2.6754 1.0138 4.0352 1.4824 1.3597 0.46857 2.734 0.91114 4.1211 1.3281s2.7866 0.80763 4.1992 1.1719c2.186 0.56266 4.3818 1.0566 6.584 1.4805 2.2022 0.42388 4.4108 0.77672 6.6211 1.0606s4.4223 0.49808 6.6328 0.64063c2.2105 0.14254 4.4204 0.21484 6.623 0.21484 2.3728 0 4.7163-0.0802 7.0293-0.23828 2.313-0.1581 4.5943-0.39402 6.8398-0.70508s4.4566-0.69736 6.627-1.1562c2.1704-0.45888 4.3012-0.99022 6.3887-1.5918 2.0875-0.60157 4.132-1.2745 6.1289-2.0137 1.9969-0.73912 3.945-1.5445 5.8438-2.416 0.2918-0.13395 0.56219-0.29465 0.85156-0.43164-1.7623-2.0115-3.569-3.9826-5.4609-5.8711-1.4183 0.61569-2.8483 1.219-4.3262 1.7559-1.8081 0.65678-3.6579 1.2545-5.5488 1.7891-1.891 0.53456-3.8222 1.0063-5.7891 1.4141-1.9668 0.40776-3.9701 0.75093-6.0059 1.0273-2.0357 0.27641-4.1035 0.48647-6.2012 0.62695-2.0977 0.14049-4.2243 0.21094-6.377 0.21094-2.0423 0-4.0914-0.0669-6.1426-0.19922-2.0512-0.13233-4.106-0.33008-6.1582-0.59375-2.0522-0.26366-4.1013-0.59233-6.1465-0.98633s-4.0849-0.85362-6.1152-1.377c-1.3077-0.33717-2.6051-0.69855-3.8887-1.084-1.2836-0.38544-2.5547-0.79391-3.8125-1.2266s-2.5019-0.88835-3.7324-1.3672c-1.2305-0.47884-2.4469-0.98189-3.6484-1.5059s-2.3876-1.0706-3.5586-1.6387c-1.171-0.56806-2.326-1.1565-3.4648-1.7676-1.1388-0.6111-2.2621-1.2434-3.3672-1.8965s-2.192-1.3274-3.2617-2.0215c-1.0697-0.69404-2.1216-1.4086-3.1543-2.1426-1.0327-0.73395-2.047-1.487-3.041-2.2598-0.99405-0.7728-1.968-1.5644-2.9219-2.375-0.95382-0.81061-1.8868-1.6409-2.7988-2.4883-0.91198-0.84738-1.8034-1.7126-2.6719-2.5957-0.86852-0.88311-1.7136-1.7834-2.5371-2.7012-0.82346-0.91779-1.6256-1.8533-2.4023-2.8047-0.77679-0.95141-1.5293-1.9183-2.2578-2.9023-0.65056-0.8785-1.2689-1.7666-1.8711-2.6582-2.6054 0.60175-5.1837 1.2697-7.7207 2.0391z" fill-rule="evenodd"/></g><g transform="translate(182.11 554.72)"><path d="m0 0c0-5.478-4.436-9.913-9.911-9.913-5.474 0-9.913 4.435-9.913 9.913 0 5.472 4.439 9.907 9.913 9.907 5.475 0 9.911-4.435 9.911-9.907" fill="#fff"/></g><g transform="translate(247.24 568.65)"><path d="m0 0c0-4.383-3.55-7.93-7.927-7.93-4.38 0-7.93 3.547-7.93 7.93 0 4.374 3.55 7.927 7.93 7.927 4.377 0 7.927-3.553 7.927-7.927" fill="#fff"/></g><g transform="translate(253.79 485.83)"><path d="m0 0c0-6.499-5.277-11.77-11.772-11.77-6.502 0-11.773 5.271-11.773 11.77s5.271 11.77 11.773 11.77c6.495 0 11.772-5.271 11.772-11.77" fill="#fff"/></g><g transform="translate(378.34 501.91)"><path d="m0 0-12.953 35.829-13.071-35.829zm4.961-13.558h-35.949l-7.021-19.124h-15.978l31.956 84.246h18.64l31.956-84.246h-16.583z" fill="#414042"/><path d="m0 0-12.953 35.829-13.071-35.829zm4.961-13.558h-35.949l-7.021-19.124h-15.978l31.956 84.246h18.64l31.956-84.246h-16.583z" fill="none" stroke="#414042" stroke-linecap="round" stroke-linejoin="round" stroke-miterlimit="10" stroke-width="1.185"/></g><g transform="translate(493.57 553.48)"><path d="m0 0v-84.246h-15.978l-39.942 55.679v-55.679h-15.979v84.246h15.979l39.942-55.558v55.558z" fill="#414042"/><path d="m0 0v-84.246h-15.978l-39.942 55.679v-55.679h-15.979v84.246h15.979l39.942-55.558v55.558z" fill="none" stroke="#414042" stroke-linecap="round" stroke-linejoin="round" stroke-miterlimit="10" stroke-width="1.185"/></g><g transform="translate(535.58 538.83)"><path d="m0 0h-23.967v14.646h63.909v-14.646h-23.964v-69.6h-15.978z" fill="#414042"/><path d="m0 0h-23.967v14.646h63.909v-14.646h-23.964v-69.6h-15.978z" fill="none" stroke="#414042" stroke-linecap="round" stroke-linejoin="round" stroke-miterlimit="10" stroke-width="1.185"/></g><g transform="translate(633.74 501.91)"><path d="m0 0-12.953 35.829-13.071-35.829zm4.961-13.558h-35.949l-7.021-19.124h-15.975l31.956 84.246h18.637l31.959-84.246h-16.586z" fill="#414042"/><path d="m0 0-12.953 35.829-13.071-35.829zm4.961-13.558h-35.949l-7.021-19.124h-15.975l31.956 84.246h18.637l31.959-84.246h-16.586z" fill="none" stroke="#414042" stroke-linecap="round" stroke-linejoin="round" stroke-miterlimit="10" stroke-width="1.185"/></g><g clip-path="url(#clipPath1188)"><g transform="translate(693.05 515.35)"><path d="m0 0h14.526c5.325 0 9.262 0.925 11.803 2.783 2.54 1.855 3.81 5.002 3.81 9.443 0 4.274-1.251 7.301-3.751 9.078-2.503 1.774-6.496 2.662-11.983 2.662h-14.405zm32.199-46.118-17.188 32.077h-15.011v-32.077h-15.978v84.245h30.383c10.894 0 19.045-2.179 24.451-6.535 5.408-4.358 8.111-10.694 8.111-19.005 0-5.891-1.331-10.893-3.996-15.008-2.662-4.116-6.617-7.183-11.862-9.2l18.641-34.497z" fill="#414042"/><path d="m0 0h14.526c5.325 0 9.262 0.925 11.803 2.783 2.54 1.855 3.81 5.002 3.81 9.443 0 4.274-1.251 7.301-3.751 9.078-2.503 1.774-6.496 2.662-11.983 2.662h-14.405zm32.199-46.118-17.188 32.077h-15.011v-32.077h-15.978v84.245h30.383c10.894 0 19.045-2.179 24.451-6.535 5.408-4.358 8.111-10.694 8.111-19.005 0-5.891-1.331-10.893-3.996-15.008-2.662-4.116-6.617-7.183-11.862-9.2l18.641-34.497z" fill="none" stroke="#414042" stroke-linecap="round" stroke-linejoin="round" stroke-miterlimit="10" stroke-width="1.185"/></g><g transform="translate(776.57 539.43)"><path d="m0 0v-21.062h36.313v-13.191h-36.313v-21.911h38.975v-14.041h-54.954v84.246h54.954v-14.041z" fill="#414042"/><path d="m0 0v-21.062h36.313v-13.191h-36.313v-21.911h38.975v-14.041h-54.954v84.246h54.954v-14.041z" fill="none" stroke="#414042" stroke-linecap="round" stroke-linejoin="round" stroke-miterlimit="10" stroke-width="1.185"/></g><g transform="translate(848.59 469.59)"><path d="m0 0c-5.082 1.21-9.884 2.862-14.405 4.962v15.495c10.492-5.651 19.853-8.474 28.085-8.474 4.113 0 7.442 0.887 9.986 2.663 2.541 1.775 3.813 4.276 3.813 7.504 0 2.258-0.708 4.177-2.119 5.749-1.414 1.575-3.17 2.865-5.267 3.874-2.096 1.009-5.083 2.24-8.955 3.692-5.25 1.937-9.524 3.792-12.832 5.568-3.308 1.775-6.133 4.297-8.473 7.565-2.344 3.269-3.51 7.485-3.51 12.651 0 7.584 2.621 13.495 7.869 17.731 5.245 4.237 12.425 6.356 21.544 6.356 4.277 0 8.473-0.465 12.587-1.393 4.117-0.928 7.909-2.28 11.38-4.055v-15.13c-8.151 4.518-16.019 6.778-23.603 6.778-4.198 0-7.486-0.747-9.864-2.239-2.382-1.493-3.571-3.612-3.571-6.354 0-2.745 1.228-4.902 3.691-6.477 2.459-1.573 6.272-3.289 11.437-5.144 5.407-2.018 9.846-3.956 13.316-5.809 3.468-1.858 6.476-4.541 9.02-8.05 2.541-3.51 3.892-8.049 4.052-13.619 0-7.987-2.704-14.263-8.111-18.82-5.406-4.561-12.628-6.841-21.665-6.841-4.521 0-9.32 0.607-14.405 1.817" fill="#414042"/><path d="m0 0c-5.082 1.21-9.884 2.862-14.405 4.962v15.495c10.492-5.651 19.853-8.474 28.085-8.474 4.113 0 7.442 0.887 9.986 2.663 2.541 1.775 3.813 4.276 3.813 7.504 0 2.258-0.708 4.177-2.119 5.749-1.414 1.575-3.17 2.865-5.267 3.874-2.096 1.009-5.083 2.24-8.955 3.692-5.25 1.937-9.524 3.792-12.832 5.568-3.308 1.775-6.133 4.297-8.473 7.565-2.344 3.269-3.51 7.485-3.51 12.651 0 7.584 2.621 13.495 7.869 17.731 5.245 4.237 12.425 6.356 21.544 6.356 4.277 0 8.473-0.465 12.587-1.393 4.117-0.928 7.909-2.28 11.38-4.055v-15.13c-8.151 4.518-16.019 6.778-23.603 6.778-4.198 0-7.486-0.747-9.864-2.239-2.382-1.493-3.571-3.612-3.571-6.354 0-2.745 1.228-4.902 3.691-6.477 2.459-1.573 6.272-3.289 11.437-5.144 5.407-2.018 9.846-3.956 13.316-5.809 3.468-1.858 6.476-4.541 9.02-8.05 2.541-3.51 3.892-8.049 4.052-13.619 0-7.987-2.704-14.263-8.111-18.82-5.406-4.561-12.628-6.841-21.665-6.841-4.521 0-9.32 0.607-14.405 1.817z" fill="none" stroke="#414042" stroke-linecap="round" stroke-linejoin="round" stroke-miterlimit="10" stroke-width="1.185"/></g></g></g></svg>
