<svg fill="#ffffff" xmlns="http://www.w3.org/2000/svg" data-name="Layer 1" viewBox="0 0 128 128"><path d="m37.563 44.94 3.776-1.368-9.528-20.418a2 2 0 0 0-3.625 0l-28 60A2.018 2.018 0 0 0 1.998 86h26v-4H5.138l24.86-53.27zM98.998 26a28.994 28.994 0 0 0-24.32 13.233l3.876 1.404a24.992 24.992 0 1 1 21.444 39.338v4a28.996 28.996 0 0 0-1-57.975z"/><path d="m92.042 49.777-26-9.418a6.011 6.011 0 0 0-4.088 0l-26 9.418a6.018 6.018 0 0 0-3.956 5.641v33.66a5.986 5.986 0 0 0 3.676 5.531l26 10.926a6.043 6.043 0 0 0 4.648 0L92.323 94.61a5.987 5.987 0 0 0 3.675-5.53v-33.66a6.018 6.018 0 0 0-3.956-5.642ZM63.317 44.12a2.004 2.004 0 0 1 1.362 0l24.918 9.026-25.73 9.715-25.48-9.71ZM37.224 90.922a1.994 1.994 0 0 1-1.226-1.844V56.521l26 9.908v34.904Zm53.55 0-24.776 10.411V66.332l26-9.817v32.563a1.995 1.995 0 0 1-1.225 1.844Z"/></svg>