<svg fill="#ffffff"
    xmlns="http://www.w3.org/2000/svg" viewBox="0 0 64 64">
    <path d="M32 64C14.36 64 0 49.65 0 32S14.36 0 32 0s32 14.36 32 32c0 17.65-14.36 32-32 32zm0-62.06C15.42 1.94 1.94 15.42 1.94 32S15.43 62.06 32 62.06 62.06 48.58 62.06 32 48.58 1.94 32 1.94z"/>
    <path d="M48.76 45.86c-1.54 0-3.05-.45-4.33-1.31-5.61-3.78-12.3-3.43-12.37-3.43h-.12c-.06-.01-6.76-.35-12.37 3.43a7.818 7.818 0 0 1-6.25 1.08c-2.14-.53-3.95-1.93-4.97-3.84-.6-1.12-1.07-2.45-1.41-3.97-.54-2.38-.63-5.02-.27-7.83C8.13 18.59 13.51 11.5 23.11 8.3a28.24 28.24 0 0 1 17.76 0c9.61 3.2 14.99 10.29 16.45 21.69.36 2.81.27 5.45-.27 7.83-.34 1.51-.82 2.85-1.41 3.97-1.02 1.91-2.83 3.31-4.97 3.84-.63.15-1.27.23-1.91.23zm-16.11-6.69c1.99 0 7.74.32 12.86 3.77 1.36.92 3.07 1.21 4.7.8 1.61-.4 2.97-1.45 3.72-2.87.52-.97.93-2.14 1.23-3.48.49-2.16.57-4.57.24-7.16-1.35-10.58-6.3-17.16-15.13-20.1a26.283 26.283 0 0 0-16.54 0C14.9 13.07 9.95 19.64 8.6 30.23c-.33 2.59-.25 5 .24 7.16.3 1.34.72 2.52 1.23 3.48a5.794 5.794 0 0 0 3.72 2.87c1.63.41 3.34.11 4.7-.8 5.94-4 12.75-3.8 13.51-3.76.11-.01.33-.01.65-.01zM23.42 9.21z"/>
    <path d="M34.15 34.6a2.672 2.672 0 0 1-2.23-1.18l-8.86-13.09c-.66-.97-.43-2.27.52-2.96s2.26-.5 2.97.42l9.71 12.47a2.674 2.674 0 0 1-.54 3.81c-.46.36-1.01.53-1.57.53zm1-1.3zm-10.3-14.4a.22.22 0 0 0-.13.04c-.1.07-.12.2-.05.3l8.86 13.09c.11.17.29.28.49.32.2.03.4-.01.57-.13.16-.12.27-.3.3-.5a.71.71 0 0 0-.15-.56l-9.71-12.47a.242.242 0 0 0-.18-.09z"/>
</svg>